<svg xmlns="http://www.w3.org/2000/svg" xml:space="preserve" width="256" height="256" fill="#fff" stroke="#fff" stroke-width=".004" viewBox="0 0 444.16 444.16"><path d="M404.163 44.882h-288c-22 0-40 18-40 40v14l-46.4 12.8c-10.4 2.8-19.2 9.2-24.4 18.4-5.2 9.2-6.8 20-4 30.4l56 208.8c2.8 10.4 9.2 19.2 18.4 24.4 6 3.6 13.2 5.6 20 5.6 3.6 0 6.8-.4 10.4-1.2l183.2-49.2h114.8c22 0 40-18 40-40v-224c0-22-18-40-40-40zm-302 337.6c-6.4 1.6-12.8.8-18.4-2.4-5.6-3.2-9.6-8.4-11.2-14.8l-56-208.8c-1.6-6.4-.8-12.8 2.4-18.4s8.4-9.6 14.8-11.2l42.4-11.6v193.6c0 22 18 40 40 40h111.2l-125.2 33.6zm326-73.6c0 13.2-10.8 24-24 24h-288c-13.2 0-24-10.8-24-24v-224c0-13.2 10.8-24 24-24h288c13.2 0 24 10.8 24 24v113.6l-38-38c-6.4-6.4-16-6.4-22.4 0l-91.6 91.2-.4-.4-46.4-46.4c-6-6-16.4-6-22.4 0l-39.2 39.2c-3.2 3.2-3.2 8 0 11.2 3.2 3.2 8 3.2 11.2 0l39.2-39.2 46.4 46.4.4.4-32.4 32.4c-3.2 3.2-3.2 8 0 11.2 1.6 1.6 3.6 2.4 5.6 2.4s4-.8 5.6-2.4l135.2-134.8 47.6 47.6c.4.4 1.2.8 1.6 1.2v88.4z"/><path d="m148.563 263.282-8 8c-3.2 3.2-3.2 8 0 11.2 1.6 1.6 3.6 2.4 5.6 2.4s4-.8 5.6-2.4l8-8c3.2-3.2 3.2-8 0-11.2-3.2-3.2-8-3.2-11.2 0zM204.163 132.882c0-22-18-40-40-40s-40 18-40 40 18 40 40 40 40-18 40-40zm-40 24c-13.2 0-24-10.8-24-24s10.8-24 24-24 24 10.8 24 24-10.8 24-24 24z"/></svg>